%
M48
M72
T01C0.0276
T02C0.0315
T03C0.0354
T04C0.0400
%
T01
X24783Y14390
X20533Y17140
X19283Y16640
X15783Y14390
X15533Y18890
X10783Y20390
X10783Y21390
X10783Y22390
X13283Y27390
X15283Y30640
X13283Y31390
X10783Y30390
X10283Y31390
X8783Y29140
X12783Y34890
X7783Y35390
X8033Y40640
X17783Y36390
X19783Y34890
X20783Y34390
X17783Y33140
X27283Y33390
X27283Y32390
X27283Y31390
X27283Y34390
X27283Y35390
X27283Y36390
X27283Y37390
X27283Y38390
X31283Y40390
X33783Y41890
X33783Y16390
T02
X22283Y23640
X22283Y24640
X22283Y25640
X22283Y26640
X22283Y27640
X22283Y28640
X22283Y29640
X22283Y30640
X22283Y31640
X22283Y32640
X22283Y33640
X22283Y34640
X22283Y35640
X22283Y36640
X22283Y37640
X22283Y38640
X22283Y39640
X22283Y40640
X22283Y41640
X22283Y42640
X16283Y42640
X16283Y41640
X16283Y40640
X16283Y39640
X16283Y38640
X16283Y37640
X16283Y36640
X16283Y35640
X16283Y34640
X16283Y33640
X16283Y32640
X16283Y31640
X16283Y30640
X16283Y29640
X16283Y28640
X16283Y27640
X16283Y26640
X16283Y25640
X16283Y24640
X16283Y23640
T03
X34783Y12390
X34783Y13390
X34783Y14390
X34783Y15390
X34783Y16390
X34783Y17390
X34783Y18390
X34783Y19390
X34783Y20390
X34783Y21390
X34783Y22390
X34783Y23390
X34783Y24390
X34783Y25390
X34783Y26390
X34783Y27390
X34783Y28390
X34783Y29390
X34783Y30390
X34783Y31390
X34783Y32390
X34783Y33390
X34783Y34390
X34783Y35390
X34783Y36390
X34783Y37390
X34783Y38390
X34783Y39390
X34783Y40390
X34783Y41390
X34783Y42390
X34783Y43390
X35783Y43390
X35783Y42390
X35783Y41390
X35783Y40390
X35783Y39390
X35783Y38390
X35783Y37390
X35783Y36390
X35783Y35390
X35783Y34390
X35783Y33390
X35783Y32390
X35783Y31390
X35783Y30390
X35783Y29390
X35783Y28390
X35783Y27390
X35783Y26390
X35783Y25390
X35783Y24390
X35783Y23390
X35783Y22390
X35783Y21390
X35783Y20390
X35783Y19390
X35783Y18390
X35783Y17390
X35783Y16390
X35783Y15390
X35783Y14390
X35783Y13390
X35783Y12390
X5783Y12390
X5783Y13390
X5783Y14390
X5783Y15390
X4783Y15390
X4783Y14390
X4783Y13390
X4783Y12390
X4783Y16390
X4783Y17390
X4783Y18390
X4783Y19390
X4783Y20390
X4783Y21390
X4783Y22390
X4783Y23390
X4783Y24390
X4783Y25390
X4783Y26390
X4783Y27390
X4783Y28390
X4783Y29390
X4783Y30390
X4783Y31390
X4783Y32390
X4783Y33390
X4783Y34390
X4783Y35390
X4783Y36390
X4783Y37390
X4783Y38390
X4783Y39390
X4783Y40390
X4783Y41390
X4783Y42390
X4783Y43390
X5783Y43390
X5783Y42390
X5783Y41390
X5783Y40390
X5783Y39390
X5783Y38390
X5783Y37390
X5783Y36390
X5783Y35390
X5783Y34390
X5783Y33390
X5783Y32390
X5783Y31390
X5783Y30390
X5783Y29390
X5783Y28390
X5783Y27390
X5783Y26390
X5783Y25390
X5783Y24390
X5783Y23390
X5783Y22390
X5783Y21390
X5783Y20390
X5783Y19390
X5783Y18390
X5783Y17390
X5783Y16390
T04
X22283Y13390
X22283Y14390
X21283Y14390
X20283Y14390
X19283Y14390
X19283Y13390
X20283Y13390
X21283Y13390
X18283Y13390
X18283Y14390
M30
